<svg width="53" height="49" viewBox="0 0 53 49" fill="none" xmlns="http://www.w3.org/2000/svg">
<g clip-path="url(#clip0_41_9)">
<path d="M28 0H25C11.1929 0 0 10.3481 0 23.1132V25.8868C0 38.6519 11.1929 49 25 49H28C41.8071 49 53 38.6519 53 25.8868V23.1132C53 10.3481 41.8071 0 28 0Z" fill="white"/>
<path fill-rule="evenodd" clip-rule="evenodd" d="M31.5961 13.8679H15.25C14.0994 13.8679 13.1667 14.7302 13.1667 15.794C13.1667 16.8578 14.0994 17.7202 15.25 17.7202H26.8045C27.1282 18.046 27.3258 18.4806 27.3258 18.9578C27.3258 19.5362 27.0357 20.0518 26.5826 20.3872H20.0576C18.907 20.3872 17.9742 21.2496 17.9742 22.3133C17.9742 23.3771 18.907 24.2395 20.0576 24.2395H21.5956C21.7742 24.5144 21.877 24.8363 21.877 25.1805C21.877 25.7586 21.587 26.2742 21.1342 26.6096H14.2884C13.1378 26.6096 12.2051 27.4719 12.2051 28.5357C12.2051 29.5994 13.1378 30.4617 14.2884 30.4617H25.8428C26.1665 30.7876 26.3641 31.2221 26.3641 31.6995C26.3641 32.2778 26.0739 32.7935 25.6208 33.1289H22.9422C21.7916 33.1289 20.8589 33.9912 20.8589 35.055C20.8589 36.1187 21.7916 36.9811 22.9422 36.9811H39.2883C40.4389 36.9811 41.3716 36.1187 41.3716 35.055C41.3716 33.9912 40.4389 33.1289 39.2883 33.1289H29.8788C29.4257 32.7935 29.1355 32.2778 29.1355 31.6995C29.1355 31.2221 29.3331 30.7876 29.6568 30.4617H30.6345C31.7851 30.4617 32.7179 29.5994 32.7179 28.5357C32.7179 27.4719 31.7851 26.6096 30.6345 26.6096H25.3912C24.9384 26.2742 24.6484 25.7586 24.6484 25.1805C24.6484 24.8363 24.7512 24.5144 24.9298 24.2395H36.4036C37.5542 24.2395 38.487 23.3771 38.487 22.3133C38.487 21.2496 37.5542 20.3872 36.4036 20.3872H30.8405C30.3875 20.0518 30.0973 19.5362 30.0973 18.9578C30.0973 18.4806 30.2949 18.046 30.6186 17.7202H31.5961C32.7467 17.7202 33.6794 16.8578 33.6794 15.794C33.6794 14.7302 32.7467 13.8679 31.5961 13.8679ZM12.8461 33.7214H17.0128C17.8978 33.7214 18.6153 34.3848 18.6153 35.2031C18.6153 36.0213 17.8978 36.6846 17.0128 36.6846H12.8461C11.961 36.6846 11.2436 36.0213 11.2436 35.2031C11.2436 34.3848 11.961 33.7214 12.8461 33.7214ZM40.7305 26.9062H36.5639C35.6788 26.9062 34.9613 27.5695 34.9613 28.3878C34.9613 29.2061 35.6788 29.8695 36.5639 29.8695H40.7305C41.6156 29.8695 42.3331 29.2061 42.3331 28.3878C42.3331 27.5695 41.6156 26.9062 40.7305 26.9062ZM10.6026 20.6835H14.7692C15.6543 20.6835 16.3718 21.3469 16.3718 22.1651C16.3718 22.9834 15.6543 23.6467 14.7692 23.6467H10.6026C9.71749 23.6467 9 22.9834 9 22.1651C9 21.3469 9.71749 20.6835 10.6026 20.6835ZM41.3716 14.1642H37.205C36.3199 14.1642 35.6024 14.8275 35.6024 15.6458C35.6024 16.4641 36.3199 17.1274 37.205 17.1274H41.3716C42.2567 17.1274 42.9742 16.4641 42.9742 15.6458C42.9742 14.8275 42.2567 14.1642 41.3716 14.1642Z" fill="url(#paint0_linear_41_9)"/>
</g>
<defs>
<linearGradient id="paint0_linear_41_9" x1="41.2114" y1="13.8679" x2="15.0358" y2="37.9737" gradientUnits="userSpaceOnUse">
<stop stop-color="#6D6D6D"/>
<stop offset="0.66" stop-color="#5F5F5F"/>
<stop offset="1" stop-color="#585858"/>
</linearGradient>
<clipPath id="clip0_41_9">
<rect width="53" height="49" fill="white"/>
</clipPath>
</defs>
</svg>
